<svg width="32" height="32" fill="currentColor" version="1.1" viewBox="0 0 32 32" xmlns="http://www.w3.org/2000/svg">
    <path d="m15 0-0.3492 1.983h-5.2e-4c-0.8272 0.07684-1.631 0.2283-2.41 0.4432l-1.102-1.73-2.185 0.9055 0.4357 1.964c-0.7251 0.3831-1.412 0.8322-2.054 1.334l-1.683-1.178-1.672 1.672 1.155 1.65c-0.5194 0.6289-0.9859 1.302-1.391 2.016 0 0-3.88e-5 5.203e-4 -6.003e-4 5.203e-4l-2.002-0.444-0.9051 2.185 1.695 1.08v5.2e-4c-0.2361 0.773-0.4088 1.573-0.5069 2.396l-2.023 0.357v2.365l1.983 0.3497c0.07684 0.8272 0.2283 1.633 0.4432 2.409l-1.73 1.102 0.9051 2.185 1.965-0.4357c0.3837 0.7251 0.8326 1.412 1.333 2.054v5.21e-4l-1.177 1.682 1.672 1.673 1.649-1.155 6.004e-4 6e-4c0.6298 0.5185 1.303 0.9825 2.017 1.387 5.604e-4 0 5.604e-4 5.19e-4 0.00112 5.19e-4l-0.4444 2.005 2.185 0.9051 1.08-1.696c0.7734 0.2361 1.573 0.4088 2.396 0.5069l0.357 2.024h2.365l0.3497-1.984c0.8255-0.07685 1.631-0.2283 2.408-0.4448l1.104 1.733 2.185-0.9055-0.4357-1.965c0.723-0.3843 1.41-0.833 2.053-1.334l4e-4 -5.21e-4 1.683 1.178 1.673-1.672-1.155-1.651c0.5194-0.6293 0.9842-1.302 1.389-2.016l2.004 0.4444 0.9055-2.185-1.695-1.08c0.2361-0.773 0.4088-1.574 0.5061-2.397l2.023-0.3564v-2.366l-1.983-0.3497v-5.19e-4c-0.07685-0.8247-0.2283-1.631-0.4448-2.407l1.731-1.103-0.9051-2.185-1.963 0.4348c-0.3859-0.7235-0.8347-1.41-1.337-2.053l1.179-1.684-1.673-1.672-1.649 1.155c-0.6293-0.5202-1.302-0.9863-2.016-1.391l0.444-2.002-2.185-0.9051-1.08 1.695h-0.0012c-0.773-0.2361-1.573-0.4088-2.396-0.5069l-0.3561-2.023zm1.002 2.76a13.24 13.24 0 0 1 13.24 13.24 13.24 13.24 0 0 1-13.24 13.24 13.24 13.24 0 0 1-13.24-13.24 13.24 13.24 0 0 1 13.24-13.24z" stroke-width=".4002"/>
    <path d="m22.55 10.28c-0.08385-0.04365-0.1403 0.06098-0.1614 0.1275-0.05858 0.1884-0.06652 0.388-0.1161 0.5789-0.1693 0.766-0.3855 1.525-0.6204 2.276-0.5395 1.688-1.255 3.32-2.113 4.872-0.497 0.8995-1.034 1.783-1.597 2.64-1.501 2.513-4.417 3.829-4.417 3.829l-0.0085 0.3405s1.912-0.9492 3.164-2.224c1.274-1.297 1.902-2.384 2.906-4.153 1.077-1.899 1.972-3.909 2.561-6.014 0.1665-0.6176 0.3282-1.238 0.4407-1.868 0.01701-0.1268 0.04844-0.2697-0.01689-0.3874-0.0071-0.0062-0.01265-0.01462-0.02165-0.01827zm-5.94 10.08c-0.3001-0.5936-0.2953-1.32 0.01537-2.303 0.06033-0.1907 0.07518-0.1968 0.2133-0.08814 0.08167 0.06427 0.1757 0.2495 0.209 0.4116 0.09176 0.4473 0.3236 0.8412 0.6453 1.097 0.2419 0.1921 0.2941 0.2762 0.3131 0.5045 0.0327 0.3924-0.02121 0.5949-0.228 0.8567-0.3284 0.4157-0.818 0.2151-1.169-0.4786zm2.023 0.6259c-0.05473-0.1679 0.03362-0.4442 0.2122-0.6634 0.2387-0.2931 0.6109-0.5241 0.7218-0.448 0.04992 0.03424 0.1403 0.09485 0.2008 0.1347 0.1846 0.1215 1.057 0.0028 1.42-0.1932 0.187-0.1012 0.3956-0.1667 0.4636-0.1455 0.1115 0.03457 0.07299 0.09723-0.391 0.636-0.5764 0.6691-0.9121 0.8905-1.52 1.002-0.5429 0.09998-1.014-0.03746-1.107-0.3231zm-1.138-1.972c-0.3586-0.6116-0.4069-0.9866-0.234-1.821 0.166-0.8037 0.2027-0.8736 0.3839-0.731 0.08314 0.06543 0.1863 0.2704 0.2294 0.4557 0.1113 0.4785 0.3346 0.843 0.6505 1.062 0.246 0.1702 0.2732 0.2202 0.2816 0.518 0.01093 0.3867-0.137 0.8034-0.341 0.9605-0.2567 0.1977-0.7177-0.01315-0.9701-0.4438zm2.088 0.4609c-0.1379-0.3682 0.6626-1.338 0.9305-1.128 0.2886 0.2271 1.211 0.103 1.614-0.2169 0.08173-0.06475 0.2284-0.1328 0.3259-0.1514 0.1702-0.03234 0.1736-0.02592 0.08396 0.1592-0.1511 0.312-0.6964 0.988-0.9816 1.217-0.3197 0.2565-0.9554 0.4863-1.299 0.4693-0.313-0.01533-0.6072-0.1674-0.6752-0.349zm-1.276-2.02c-0.2082-0.2988-0.3189-0.6187-0.3442-0.996-0.02646-0.3934 0.06911-1.168 0.1785-1.445 0.05559-0.1411 0.08338-0.1439 0.2361-0.02374 0.09521 0.07494 0.1686 0.1753 0.1631 0.2232-0.0055 0.04786 0.06954 0.2617 0.1667 0.475 0.1329 0.2919 0.2636 0.4578 0.5276 0.6695 0.3965 0.3182 0.4646 0.5068 0.3646 1.01-0.1217 0.6124-0.5111 0.795-0.942 0.4416-0.1323-0.1085-0.29-0.2682-0.3502-0.3546zm2.121 0.3314c0.02506-0.2849 0.1932-0.5849 0.4767-0.8507 0.1918-0.1798 0.2684-0.2108 0.3543-0.1433 0.2607 0.2052 1.162 2e-3 1.651-0.3724 0.1585-0.1213 0.3061-0.1827 0.3521-0.1464 0.1085 0.08542-0.04093 0.3637-0.5507 1.025-0.4051 0.5258-0.4606 0.5733-0.9057 0.7747-0.7378 0.3336-1.42 0.1919-1.378-0.2867zm-1.525-2.113c-0.2571-0.4318-0.3134-1.079-0.1637-1.882l0.107-0.5742 0.1732 0.1363c0.09522 0.07494 0.2179 0.2772 0.2726 0.4494 0.1438 0.4529 0.5231 0.9606 0.7843 1.05 0.1852 0.06378 0.2126 0.1083 0.2415 0.3919 0.03294 0.3228-0.06578 0.8107-0.1978 0.9778-0.03934 0.04982-0.1852 0.104-0.3242 0.1204-0.3144 0.03709-0.5994-0.1769-0.8934-0.6705zm2.22 0.5436c-0.06312-0.2611 0.1437-0.6974 0.4571-0.9645 0.1463-0.1246 0.2549-0.1417 0.5182-0.08167 0.3774 0.0861 0.9926-0.07709 1.402-0.3717 0.6316-0.4546 0.6541-0.2358 0.06057 0.5882-0.5182 0.7195-0.835 0.9835-1.358 1.132-0.335 0.09468-0.8272 0.08531-0.9598-0.01831-0.03534-0.02769-0.08964-0.1552-0.1206-0.2834zm-1.567-2.164c-0.1079-0.1835-0.2198-0.5105-0.2487-0.7268-0.05266-0.3949-0.0079-1.378 0.06732-1.473 0.07605-0.09625 0.3144 0.1654 0.5262 0.5777 0.2265 0.441 0.7139 0.8977 0.9519 0.8919 0.1571-0.0039 0.3004 0.5608 0.232 0.9148-0.161 0.8336-0.9891 0.734-1.529-0.1848zm2.317 0.4714c0.03962-0.4501 0.5181-1.126 0.6973-0.9848 0.04134 0.03253 0.2759 0.02242 0.5212-0.02247 0.4281-0.07829 0.9515-0.3682 1.174-0.6504 0.05479-0.06935 0.1613-0.1276 0.2366-0.1295 0.1143-0.0028 0.1126 0.0596-0.01029 0.3762-0.2366 0.6098-0.7549 1.318-1.159 1.583-0.4739 0.3115-1.034 0.3984-1.287 0.1996-0.1433-0.1128-0.1883-0.2091-0.174-0.3725zm-1.737-2.115c-0.2313-0.3342-0.3793-1.052-0.3559-1.725 0.0086-0.2493 0.03242-0.4549 0.05305-0.4569 0.1155-0.01139 0.3663 0.2323 0.4945 0.4806 0.1548 0.2997 0.734 0.8074 1.083 0.949 0.3625 0.1471 0.3783 1.122 0.02221 1.394-0.2985 0.2285-0.9015-0.06935-1.297-0.6405zm2.285 0.4466c-0.01753-0.2123 0.1688-0.7028 0.357-0.9396 0.06869-0.08647 0.1907-0.1192 0.3528-0.0947 0.4245 0.06424 1.014-0.2293 1.414-0.7045 0.09826-0.1165 0.247-0.2332 0.3304-0.2594 0.1372-0.04292 0.1436-0.02001 0.06684 0.2388-0.3735 1.26-1.064 2.078-1.854 2.198-0.3614 0.05517-0.6417-0.1293-0.6673-0.4391zm-1.786-1.949c-0.2664-0.3603-0.3522-0.564-0.4224-1.003-0.07094-0.443-0.07397-1.33-0.0043-1.335 0.02005-0.00136 0.1965 0.07662 0.3921 0.1732 0.8449 0.4175 1.327 0.994 1.427 1.707 0.08585 0.6118-0.1749 1.077-0.5646 1.008-0.2257-0.04011-0.6681-0.3341-0.8277-0.5499zm2.143 0.3233c-0.1539-0.5108 0.4311-1.421 1.152-1.793 0.4293-0.2212 1.198-0.4949 1.258-0.4478 0.08853 0.06918-0.2214 1.077-0.4676 1.521-0.3108 0.5604-1.059 1.089-1.506 1.063-0.2523-0.01427-0.3635-0.1018-0.4363-0.3434zm-0.6468-1.542c-0.122-0.2554-0.1479-0.7416-0.06222-1.175 0.06621-0.3347 0.5395-1.121 0.8774-1.458l0.2616-0.261 0.1749 0.4796c0.3623 0.9933 0.2582 1.978-0.2683 2.53-0.408 0.4275-0.743 0.3883-0.9835-0.1147z" stroke-width=".4002"/>
    <path d="m9.546 6.45c-1.605 0.04456-2.929 2.525-1.968 3.857 0.2047 0.2841 0.36 0.6386 0.5975 0.9688l-1.386-1.494c-0.02275 2.72 0.8162 3.235 3.115 5.443-0.7979-0.3886-1.473-0.8804-2.081-1.427 0.1183 3.45 2.727 5.488 5.19 6.524-0.909-0.2165-1.957-0.7614-3.087-1.505 0.5831 1.197 1.42 2.164 2.989 2.466l-0.323 0.3433 0.8761 0.06411-0.5001 0.5076 1.654-0.2372c0.8515 0.7526 2.609 2.374 3.352 2.666 0.05014 0.0048 0.9863 0.01988 1.845 0.1451-1.198-0.3099-3.866-2.756-4.775-3.752l0.6936-1.225-0.4677 0.4575 0.3726-2.088c-0.5153 0.6445-0.6804 1.4-1.041 1.536 0.6156-2.068 0.7574-3.894 0.3107-5.364-0.2134 0.416-0.4434 0.9013-0.6606 1.12 0.01782-2.199-0.785-3.753-1.346-5.564-0.2581 2.014-0.9268 3.727-1.46 4.109 1.398-3.227 1.225-5.685-0.8336-7.22-0.2277-0.15-0.4736-0.2551-0.7415-0.3032-0.1089-0.01974-0.2172-0.02756-0.3242-0.02459zm0.1037 0.5367c-0.4135 3.771 0.481 7.182 2.495 10.35 0.806 1.272 1.737 2.536 2.791 3.7 1.413 1.646 3.532 3.267 4.201 3.548-0.1235-0.0093-0.442-0.03179-0.729-0.04871-1.059-0.5024-3.409-2.708-4.235-3.572-0.8595-0.8984-1.452-1.959-2.251-3.223-1.195-1.895-2.013-3.785-2.419-5.989-0.2169-1.172-0.3907-2.637-0.1522-3.818 0.06482-0.3229 0.1613-0.6398 0.3006-0.9505z" stroke-width=".4002"/>
</svg>