<svg width="32" height="32" fill="currentColor" version="1.1" viewBox="0 0 32 32" xmlns="http://www.w3.org/2000/svg" xmlns:xlink="http://www.w3.org/1999/xlink">
    <defs>
        <linearGradient id="linearGradient981" x2="500" y2="500" gradientTransform="matrix(.064 0 0 .064 2.34e-6 -3.26e-6)" gradientUnits="userSpaceOnUse">
            <stop stop-color="#038773" offset="0"/>
            <stop stop-color="#00428d" offset="1"/>
        </linearGradient>
    </defs>
    <rect width="32" height="32" rx="16" fill="url(#linearGradient981)" stroke-width="0"/>
    <g transform="matrix(.813 0 0 .813 3 3)" fill="#fff">
        <path d="m15 0-0.349 1.98h-5.2e-4c-0.827 0.0768-1.63 0.228-2.41 0.443l-1.1-1.73-2.18 0.906 0.436 1.96c-0.725 0.383-1.41 0.832-2.05 1.33l-1.68-1.18-1.67 1.67 1.16 1.65c-0.519 0.629-0.986 1.3-1.39 2.02 0 0-3.88e-5 5.2e-4 -6e-4 5.2e-4l-2-0.444-0.905 2.18 1.7 1.08v5.2e-4c-0.236 0.773-0.409 1.57-0.507 2.4l-2.02 0.357v2.36l1.98 0.35c0.0768 0.827 0.228 1.63 0.443 2.41l-1.73 1.1 0.905 2.18 1.96-0.436c0.384 0.725 0.833 1.41 1.33 2.05v5.21e-4l-1.18 1.68 1.67 1.67 1.65-1.16 6e-4 6e-4c0.63 0.518 1.3 0.982 2.02 1.39 5.6e-4 0 5.6e-4 5.19e-4 0.00112 5.19e-4l-0.444 2 2.18 0.905 1.08-1.7c0.773 0.236 1.57 0.409 2.4 0.507l0.357 2.02h2.36l0.35-1.98c0.826-0.0768 1.63-0.228 2.41-0.445l1.1 1.73 2.18-0.906-0.436-1.96c0.723-0.384 1.41-0.833 2.05-1.33l4e-4 -5.21e-4 1.68 1.18 1.67-1.67-1.16-1.65c0.519-0.629 0.984-1.3 1.39-2.02l2 0.444 0.906-2.18-1.7-1.08c0.236-0.773 0.409-1.57 0.506-2.4l2.02-0.356v-2.37l-1.98-0.35v-5.19e-4c-0.0768-0.825-0.228-1.63-0.445-2.41l1.73-1.1-0.905-2.18-1.96 0.435c-0.386-0.724-0.835-1.41-1.34-2.05l1.18-1.68-1.67-1.67-1.65 1.16c-0.629-0.52-1.3-0.986-2.02-1.39l0.444-2-2.18-0.905-1.08 1.7h-0.0012c-0.773-0.236-1.57-0.409-2.4-0.507l-0.356-2.02zm1 2.76a13.2 13.2 0 0 1 13.2 13.2 13.2 13.2 0 0 1-13.2 13.2 13.2 13.2 0 0 1-13.2-13.2 13.2 13.2 0 0 1 13.2-13.2z"/>
        <path d="m22.6 10.3c-0.0838-0.0436-0.14 0.061-0.161 0.128-0.0586 0.188-0.0665 0.388-0.116 0.579-0.169 0.766-0.386 1.52-0.62 2.28-0.54 1.69-1.26 3.32-2.11 4.87-0.497 0.9-1.03 1.78-1.6 2.64-1.5 2.51-4.42 3.83-4.42 3.83l-0.0085 0.34s1.91-0.949 3.16-2.22c1.27-1.3 1.9-2.38 2.91-4.15 1.08-1.9 1.97-3.91 2.56-6.01 0.166-0.618 0.328-1.24 0.441-1.87 0.017-0.127 0.0484-0.27-0.0169-0.387-0.0071-0.0062-0.0126-0.0146-0.0216-0.0183zm-5.94 10.1c-0.3-0.594-0.295-1.32 0.0154-2.3 0.0603-0.191 0.0752-0.197 0.213-0.0881 0.0817 0.0643 0.176 0.25 0.209 0.412 0.0918 0.447 0.324 0.841 0.645 1.1 0.242 0.192 0.294 0.276 0.313 0.504 0.0327 0.392-0.0212 0.595-0.228 0.857-0.328 0.416-0.818 0.215-1.17-0.479zm2.02 0.626c-0.0547-0.168 0.0336-0.444 0.212-0.663 0.239-0.293 0.611-0.524 0.722-0.448 0.0499 0.0342 0.14 0.0948 0.201 0.135 0.185 0.122 1.06 0.0028 1.42-0.193 0.187-0.101 0.396-0.167 0.464-0.146 0.112 0.0346 0.073 0.0972-0.391 0.636-0.576 0.669-0.912 0.89-1.52 1-0.543 0.1-1.01-0.0375-1.11-0.323zm-1.14-1.97c-0.359-0.612-0.407-0.987-0.234-1.82 0.166-0.804 0.203-0.874 0.384-0.731 0.0831 0.0654 0.186 0.27 0.229 0.456 0.111 0.478 0.335 0.843 0.65 1.06 0.246 0.17 0.273 0.22 0.282 0.518 0.0109 0.387-0.137 0.803-0.341 0.96-0.257 0.198-0.718-0.0132-0.97-0.444zm2.09 0.461c-0.138-0.368 0.663-1.34 0.93-1.13 0.289 0.227 1.21 0.103 1.61-0.217 0.0817-0.0648 0.228-0.133 0.326-0.151 0.17-0.0323 0.174-0.0259 0.084 0.159-0.151 0.312-0.696 0.988-0.982 1.22-0.32 0.256-0.955 0.486-1.3 0.469-0.313-0.0153-0.607-0.167-0.675-0.349zm-1.28-2.02c-0.208-0.299-0.319-0.619-0.344-0.996-0.0265-0.393 0.0691-1.17 0.178-1.44 0.0556-0.141 0.0834-0.144 0.236-0.0237 0.0952 0.0749 0.169 0.175 0.163 0.223-0.0055 0.0479 0.0695 0.262 0.167 0.475 0.133 0.292 0.264 0.458 0.528 0.67 0.396 0.318 0.465 0.507 0.365 1.01-0.122 0.612-0.511 0.795-0.942 0.442-0.132-0.108-0.29-0.268-0.35-0.355zm2.12 0.331c0.0251-0.285 0.193-0.585 0.477-0.851 0.192-0.18 0.268-0.211 0.354-0.143 0.261 0.205 1.16 2e-3 1.65-0.372 0.158-0.121 0.306-0.183 0.352-0.146 0.108 0.0854-0.0409 0.364-0.551 1.02-0.405 0.526-0.461 0.573-0.906 0.775-0.738 0.334-1.42 0.192-1.38-0.287zm-1.52-2.11c-0.257-0.432-0.313-1.08-0.164-1.88l0.107-0.574 0.173 0.136c0.0952 0.0749 0.218 0.277 0.273 0.449 0.144 0.453 0.523 0.961 0.784 1.05 0.185 0.0638 0.213 0.108 0.242 0.392 0.0329 0.323-0.0658 0.811-0.198 0.978-0.0393 0.0498-0.185 0.104-0.324 0.12-0.314 0.0371-0.599-0.177-0.893-0.67zm2.22 0.544c-0.0631-0.261 0.144-0.697 0.457-0.964 0.146-0.125 0.255-0.142 0.518-0.0817 0.377 0.0861 0.993-0.0771 1.4-0.372 0.632-0.455 0.654-0.236 0.0606 0.588-0.518 0.72-0.835 0.984-1.36 1.13-0.335 0.0947-0.827 0.0853-0.96-0.0183-0.0353-0.0277-0.0896-0.155-0.121-0.283zm-1.57-2.16c-0.108-0.184-0.22-0.51-0.249-0.727-0.0527-0.395-0.0079-1.38 0.0673-1.47 0.076-0.0962 0.314 0.165 0.526 0.578 0.226 0.441 0.714 0.898 0.952 0.892 0.157-0.0039 0.3 0.561 0.232 0.915-0.161 0.834-0.989 0.734-1.53-0.185zm2.32 0.471c0.0396-0.45 0.518-1.13 0.697-0.985 0.0413 0.0325 0.276 0.0224 0.521-0.0225 0.428-0.0783 0.952-0.368 1.17-0.65 0.0548-0.0694 0.161-0.128 0.237-0.13 0.114-0.0028 0.113 0.0596-0.0103 0.376-0.237 0.61-0.755 1.32-1.16 1.58-0.474 0.312-1.03 0.398-1.29 0.2-0.143-0.113-0.188-0.209-0.174-0.372zm-1.74-2.12c-0.231-0.334-0.379-1.05-0.356-1.72 0.0086-0.249 0.0324-0.455 0.053-0.457 0.116-0.0114 0.366 0.232 0.494 0.481 0.155 0.3 0.734 0.807 1.08 0.949 0.362 0.147 0.378 1.12 0.0222 1.39-0.298 0.228-0.902-0.0694-1.3-0.64zm2.28 0.447c-0.0175-0.212 0.169-0.703 0.357-0.94 0.0687-0.0865 0.191-0.119 0.353-0.0947 0.424 0.0642 1.01-0.229 1.41-0.704 0.0983-0.116 0.247-0.233 0.33-0.259 0.137-0.0429 0.144-0.02 0.0668 0.239-0.374 1.26-1.06 2.08-1.85 2.2-0.361 0.0552-0.642-0.129-0.667-0.439zm-1.79-1.95c-0.266-0.36-0.352-0.564-0.422-1-0.0709-0.443-0.074-1.33-0.0043-1.34 0.02-0.00136 0.196 0.0766 0.392 0.173 0.845 0.418 1.33 0.994 1.43 1.71 0.0858 0.612-0.175 1.08-0.565 1.01-0.226-0.0401-0.668-0.334-0.828-0.55zm2.14 0.323c-0.154-0.511 0.431-1.42 1.15-1.79 0.429-0.221 1.2-0.495 1.26-0.448 0.0885 0.0692-0.221 1.08-0.468 1.52-0.311 0.56-1.06 1.09-1.51 1.06-0.252-0.0143-0.364-0.102-0.436-0.343zm-0.647-1.54c-0.122-0.255-0.148-0.742-0.0622-1.18 0.0662-0.335 0.54-1.12 0.877-1.46l0.262-0.261 0.175 0.48c0.362 0.993 0.258 1.98-0.268 2.53-0.408 0.428-0.743 0.388-0.984-0.115z"/>
        <path d="m9.55 6.45c-1.6 0.0446-2.93 2.52-1.97 3.86 0.205 0.284 0.36 0.639 0.598 0.969l-1.39-1.49c-0.0228 2.72 0.816 3.24 3.12 5.44-0.798-0.389-1.47-0.88-2.08-1.43 0.118 3.45 2.73 5.49 5.19 6.52-0.909-0.216-1.96-0.761-3.09-1.5 0.583 1.2 1.42 2.16 2.99 2.47l-0.323 0.343 0.876 0.0641-0.5 0.508 1.65-0.237c0.852 0.753 2.61 2.37 3.35 2.67 0.0501 0.0048 0.986 0.0199 1.84 0.145-1.2-0.31-3.87-2.76-4.78-3.75l0.694-1.22-0.468 0.458 0.373-2.09c-0.515 0.644-0.68 1.4-1.04 1.54 0.616-2.07 0.757-3.89 0.311-5.36-0.213 0.416-0.443 0.901-0.661 1.12 0.0178-2.2-0.785-3.75-1.35-5.56-0.258 2.01-0.927 3.73-1.46 4.11 1.4-3.23 1.22-5.68-0.834-7.22-0.228-0.15-0.474-0.255-0.742-0.303-0.109-0.0197-0.217-0.0276-0.324-0.0246zm0.104 0.537c-0.414 3.77 0.481 7.18 2.5 10.4 0.806 1.27 1.74 2.54 2.79 3.7 1.41 1.65 3.53 3.27 4.2 3.55-0.124-0.0093-0.442-0.0318-0.729-0.0487-1.06-0.502-3.41-2.71-4.24-3.57-0.86-0.898-1.45-1.96-2.25-3.22-1.2-1.9-2.01-3.78-2.42-5.99-0.217-1.17-0.391-2.64-0.152-3.82 0.0648-0.323 0.161-0.64 0.301-0.95z"/>
    </g>
</svg>
