<svg width="24" height="24" version="1.1" viewBox="0 0 24 24" xmlns="http://www.w3.org/2000/svg">
    <path d="m0.624 5.23a0.6 0.6 0 0 0-0.432 0.16 0.6 0.6 0 0 0-0.0332 0.848l11.4 12.3a0.6 0.6 0 0 0 0.0195 0.0137 0.6 0.6 0 0 0 0.0137 0.0195 0.6 0.6 0 0 0 0.0781 0.0488 0.6 0.6 0 0 0 0.102 0.0625 0.6 0.6 0 0 0 0.111 0.0254 0.6 0.6 0 0 0 0.117 0.0195 0.6 0.6 0 0 0 0.117-0.0195 0.6 0.6 0 0 0 0.111-0.0254 0.6 0.6 0 0 0 0.102-0.0625 0.6 0.6 0 0 0 0.0781-0.0488 0.6 0.6 0 0 0 0.0254-0.0273 0.6 0.6 0 0 0 0.0078-6e-3l11.4-12.3a0.6 0.6 0 0 0-0.0332-0.848 0.6 0.6 0 0 0-0.432-0.16 0.6 0.6 0 0 0-0.416 0.193l-11 11.9-11-11.9a0.6 0.6 0 0 0-0.416-0.193z"/>
</svg>
