<svg width="24" height="24" version="1.1" viewBox="0 0 24 24" xmlns="http://www.w3.org/2000/svg">
    <path d="m21.4 18h-18.9a0.857 0.857 0 0 1 0-1.71h18.9a0.857 0.857 0 0 1 0 1.71zm0-10.3h-18.9a0.857 0.857 0 0 1 0-1.71h18.9a0.857 0.857 0 0 1 0 1.71zm1.71 5.14h-22.3a0.857 0.857 0 0 1 0-1.71h22.3a0.857 0.857 0 0 1 0 1.71zm-11.1 11.1c-3.85 0-6.86-5.27-6.86-12a0.857 0.857 0 0 1 1.71 0c0 5.57 2.36 10.3 5.14 10.3a0.857 0.857 0 0 1 0 1.71zm-6-11.1a0.857 0.857 0 0 1-0.857-0.857c0-6.73 3.01-12 6.86-12a0.857 0.857 0 0 1 0 1.71c-2.79 0-5.14 4.71-5.14 10.3a0.857 0.857 0 0 1-0.857 0.857zm6 11.1a0.857 0.857 0 0 1 0-1.71c2.79 0 5.14-4.71 5.14-10.3a0.857 0.857 0 0 1 1.71 0c0 6.73-3.01 12-6.86 12zm6-11.1a0.857 0.857 0 0 1-0.857-0.857c0-5.57-2.36-10.3-5.14-10.3a0.857 0.857 0 0 1 0-1.71c3.85 0 6.86 5.27 6.86 12a0.857 0.857 0 0 1-0.857 0.857zm-6 11.1a0.857 0.857 0 0 1-0.857-0.857v-22.3a0.857 0.857 0 0 1 1.71 0v22.3a0.857 0.857 0 0 1-0.857 0.857zm0 0a12 12 0 1 1 12-12 12 12 0 0 1-12 12zm0-22.3a10.3 10.3 0 1 0 10.3 10.3 10.3 10.3 0 0 0-10.3-10.3z" stroke-width=".48"/>
</svg>
