<svg width="24" height="24" version="1.1" viewBox="0 0 24 24" xmlns="http://www.w3.org/2000/svg">
    <path d="m19.6 5.73a1.39 1.39 0 1 1-1.39-1.39 1.39 1.39 0 0 1 1.39 1.39zm4.41 6.27-2.86e-4 0.0175-0.0789 5.03a6.95 6.95 0 0 1-6.87 6.87l-5.05 0.0794-5.05-0.079a6.95 6.95 0 0 1-6.87-6.87l-0.079-5.05 3.43e-4 -0.0175 0.0786-5.03a6.95 6.95 0 0 1 6.87-6.87l5.05-0.0792 5.05 0.079a6.95 6.95 0 0 1 6.87 6.87zm-2.23 0-0.0785-5.02a4.72 4.72 0 0 0-4.67-4.67l-5.02-0.0783-5.02 0.0783a4.72 4.72 0 0 0-4.67 4.67l-0.0783 5.02 0.0783 5.02a4.72 4.72 0 0 0 4.67 4.67l5.02 0.0783 5.02-0.0783a4.72 4.72 0 0 0 4.67-4.67zm-3.6 0a6.16 6.16 0 1 1-6.16-6.16 6.17 6.17 0 0 1 6.16 6.16zm-2.23 0a3.93 3.93 0 1 0-3.93 3.93 3.93 3.93 0 0 0 3.93-3.93z"/>
</svg>
