<svg width="24" height="24" version="1.1" viewBox="0 0 24 24" xmlns="http://www.w3.org/2000/svg">
    <path d="m1.65 10.6c6.44-2.81 10.7-4.66 12.9-5.55 6.14-2.55 7.41-3 8.24-3.01 0.183-0.00323 0.592 0.042 0.856 0.257 0.224 0.181 0.285 0.426 0.315 0.598 0.0296 0.172 0.0661 0.564 0.0371 0.87-0.333 3.49-1.77 12-2.5 15.9-0.31 1.66-0.92 2.21-1.51 2.27-1.28 0.118-2.26-0.848-3.5-1.66-1.95-1.28-3.04-2.07-4.93-3.31-2.18-1.44-0.767-2.23 0.476-3.52 0.325-0.338 5.98-5.48 6.09-5.95 0.0137-0.0583 0.0265-0.276-0.103-0.391-0.129-0.115-0.32-0.0756-0.458-0.0443-0.195 0.0443-3.3 2.1-9.32 6.16-0.882 0.606-1.68 0.901-2.4 0.885-0.789-0.0172-2.31-0.446-3.44-0.813-1.38-0.45-2.48-0.688-2.39-1.45 0.0499-0.398 0.598-0.805 1.64-1.22z" stroke-width=".48"/>
</svg>
