<svg preserveAspectRatio="xMinYMin meet" fill="currentColor" version="1.1" viewBox="0 0 200 139.7" xmlns="http://www.w3.org/2000/svg">
    <path d="m97.5 6.41e-7 -0.8724 4.954h-0.0013c-2.067 0.192-4.074 0.5705-6.021 1.107l-2.753-4.322-5.46 2.262 1.089 4.908c-1.812 0.9573-3.527 2.079-5.132 3.334l-4.205-2.943-4.178 4.178 2.886 4.123c-1.298 1.571-2.463 3.253-3.475 5.037 0 0-9.7e-5 0.0013-0.0015 0.0013l-5.003-1.109-2.261 5.46 4.236 2.698v0.0013c-0.59 1.931-1.021 3.931-1.267 5.987l-5.056 0.892v5.91l4.955 0.8739c0.192 2.067 0.5705 4.079 1.107 6.02l-4.323 2.754 2.261 5.46 4.911-1.089c0.9587 1.812 2.08 3.527 3.331 5.132v0.0013l-2.942 4.202 4.178 4.18 4.12-2.886 0.0015 0.0015c1.574 1.296 3.256 2.455 5.039 3.466 0.0014 0 0.0014 0.0013 0.0028 0.0013l-1.11 5.009 5.46 2.261 2.7-4.237c1.933 0.59 3.931 1.021 5.987 1.267l0.892 5.057h5.91l0.8738-4.957c2.063-0.192 4.075-0.5705 6.016-1.111l2.758 4.329 5.46-2.262-1.089-4.909c1.807-0.9601 3.523-2.081 5.128-3.332l1e-3 -0.0013 4.205 2.944 4.179-4.178-2.887-4.124c1.298-1.572 2.459-3.254 3.471-5.038l5.008 1.11 2.262-5.46-4.236-2.698c0.59-1.931 1.021-3.934 1.264-5.99l5.055-0.8906v-5.911l-4.954-0.8739v-0.0013c-0.192-2.061-0.5705-4.074-1.111-6.015l4.326-2.757-2.261-5.46-4.904 1.086c-0.9643-1.808-2.086-3.523-3.341-5.128l2.945-4.206-4.179-4.178-4.121 2.886c-1.572-1.3-3.254-2.464-5.038-3.476l1.109-5.003-5.46-2.261-2.698 4.235h-3e-3c-1.931-0.59-3.931-1.021-5.987-1.267l-0.8898-5.053zm2.503 6.897a33.08 33.08 0 0 1 33.08 33.08 33.08 33.08 0 0 1-33.08 33.08 33.08 33.08 0 0 1-33.08-33.08 33.08 33.08 0 0 1 33.08-33.08z"/>
    <path d="m116.4 25.69c-0.2095-0.1091-0.3506 0.1524-0.4033 0.3185-0.1464 0.4706-0.1662 0.9695-0.29 1.446-0.4229 1.914-0.9631 3.812-1.55 5.687-1.348 4.218-3.136 8.296-5.28 12.17-1.242 2.248-2.583 4.454-3.99 6.597-3.751 6.28-11.04 9.567-11.04 9.567l-0.02124 0.8508s4.778-2.372 7.906-5.557c3.183-3.241 4.753-5.956 7.261-10.38 2.692-4.745 4.928-9.768 6.398-15.03 0.416-1.543 0.82-3.093 1.101-4.668 0.0425-0.3168 0.121-0.6739-0.0422-0.9679-0.0177-0.01542-0.0316-0.03654-0.0541-0.04564zm-14.84 25.17c-0.7499-1.483-0.7379-3.298 0.0384-5.753 0.1507-0.4765 0.1878-0.4918 0.533-0.2202 0.2041 0.1606 0.4391 0.6235 0.5221 1.028 0.2292 1.118 0.8086 2.102 1.612 2.74 0.6043 0.4799 0.7349 0.6901 0.7823 1.261 0.0817 0.9803-0.053 1.486-0.5698 2.14-0.8205 1.039-2.044 0.5375-2.92-1.196zm5.056 1.564c-0.1367-0.4195 0.084-1.11 0.5302-1.658 0.5965-0.7324 1.526-1.309 1.804-1.119 0.1247 0.08556 0.3505 0.237 0.5018 0.3365 0.4613 0.3036 2.642 0.0069 3.547-0.4828 0.4671-0.2527 0.9884-0.4165 1.158-0.3636 0.2786 0.08638 0.1824 0.2429-0.977 1.589-1.44 1.672-2.279 2.225-3.799 2.505-1.356 0.2498-2.532-0.0936-2.765-0.8074zm-2.844-4.928c-0.8959-1.528-1.017-2.465-0.5846-4.55 0.4147-2.008 0.5065-2.183 0.9593-1.826 0.2077 0.1635 0.4655 0.6757 0.5732 1.139 0.2781 1.196 0.8361 2.106 1.625 2.653 0.6146 0.4254 0.6825 0.5503 0.7036 1.294 0.0273 0.9662-0.3423 2.007-0.8521 2.4-0.6415 0.494-1.793-0.03286-2.424-1.109zm5.216 1.152c-0.3445-0.9201 1.656-3.344 2.325-2.818 0.721 0.5674 3.025 0.2574 4.034-0.5419 0.2042-0.1618 0.5706-0.3319 0.8144-0.3782 0.4254-0.0808 0.4339-0.06475 0.2098 0.3977-0.3776 0.7795-1.74 2.469-2.453 3.041-0.7989 0.6409-2.387 1.215-3.245 1.173-0.782-0.0383-1.517-0.4184-1.687-0.8721zm-3.189-5.048c-0.5203-0.7466-0.7967-1.546-0.8601-2.489-0.0661-0.983 0.1727-2.918 0.446-3.611 0.1389-0.3526 0.2083-0.3596 0.5899-0.05931 0.2379 0.1872 0.4212 0.4381 0.4075 0.5577-0.0137 0.1196 0.1737 0.6538 0.4166 1.187 0.3321 0.7292 0.6587 1.144 1.318 1.673 0.9908 0.7949 1.161 1.266 0.9109 2.524-0.3041 1.53-1.277 1.986-2.354 1.103-0.3306-0.2712-0.7245-0.67-0.8751-0.8861zm5.3 0.8281c0.0626-0.7118 0.4828-1.462 1.191-2.126 0.4792-0.4493 0.6707-0.5268 0.8852-0.358 0.6514 0.5127 2.903 0.0049 4.126-0.9304 0.396-0.3032 0.7648-0.4564 0.8799-0.3659 0.2712 0.2134-0.1023 0.9087-1.376 2.562-1.012 1.314-1.151 1.432-2.263 1.936-1.844 0.8336-3.548 0.4794-3.442-0.7164zm-3.811-5.28c-0.6423-1.079-0.7831-2.695-0.409-4.701l0.2673-1.435 0.4327 0.3406c0.2379 0.1872 0.5445 0.6926 0.6812 1.123 0.3592 1.132 1.307 2.4 1.96 2.624 0.4627 0.1593 0.5313 0.2707 0.6035 0.9792 0.0823 0.8066-0.1643 2.026-0.4943 2.443-0.0983 0.1245-0.4628 0.2599-0.81 0.3007-0.7856 0.09267-1.498-0.4419-2.232-1.675zm5.546 1.358c-0.1577-0.6523 0.359-1.743 1.142-2.41 0.3655-0.3113 0.6368-0.3539 1.295-0.2041 0.943 0.2151 2.48-0.1926 3.503-0.9287 1.578-1.136 1.634-0.5892 0.1513 1.47-1.295 1.798-2.086 2.457-3.392 2.828-0.8369 0.2366-2.067 0.2131-2.398-0.04575-0.0883-0.06919-0.224-0.3877-0.3014-0.7081zm-3.916-5.406c-0.2697-0.4585-0.5493-1.276-0.6214-1.816-0.1316-0.9866-0.0198-3.443 0.1682-3.681 0.19-0.2405 0.7855 0.4132 1.315 1.443 0.566 1.102 1.784 2.243 2.378 2.229 0.3926-0.0098 0.7506 1.401 0.5796 2.286-0.4022 2.083-2.471 1.834-3.821-0.4616zm5.788 1.178c0.099-1.125 1.295-2.813 1.742-2.461 0.1033 0.08129 0.6894 0.05601 1.302-0.05615 1.07-0.1956 2.377-0.9199 2.935-1.625 0.1369-0.1733 0.4029-0.3188 0.5912-0.3235 0.2856-0.0071 0.2813 0.1489-0.0257 0.9401-0.5913 1.524-1.886 3.294-2.895 3.956-1.184 0.7782-2.584 0.9954-3.215 0.4988-0.3581-0.2818-0.4705-0.5225-0.4347-0.9307zm-4.34-5.285c-0.5779-0.8351-0.9476-2.628-0.8893-4.311 0.0214-0.6228 0.081-1.137 0.1326-1.142 0.2887-0.02846 0.9152 0.5803 1.236 1.201 0.3868 0.7489 1.834 2.017 2.705 2.371 0.9058 0.3676 0.9453 2.803 0.0555 3.483-0.7459 0.5709-2.252-0.1733-3.24-1.6zm5.709 1.116c-0.0438-0.5304 0.4218-1.756 0.8921-2.348 0.1716-0.216 0.4766-0.2979 0.8816-0.2366 1.061 0.1605 2.533-0.5729 3.534-1.76 0.2455-0.2911 0.617-0.5827 0.8255-0.648 0.3427-0.1072 0.3589-0.04999 0.167 0.5968-0.9332 3.147-2.658 5.192-4.633 5.493-0.903 0.1378-1.603-0.3231-1.667-1.097zm-4.462-4.87c-0.6656-0.9002-0.8801-1.409-1.056-2.505-0.1772-1.107-0.1848-3.324-0.0107-3.336 0.0501-0.0034 0.491 0.1914 0.9796 0.4329 2.111 1.043 3.315 2.484 3.565 4.264 0.2145 1.529-0.4369 2.692-1.411 2.519-0.564-0.1002-1.669-0.8347-2.068-1.374zm5.354 0.8079c-0.3846-1.276 1.077-3.551 2.879-4.479 1.073-0.5528 2.993-1.237 3.143-1.119 0.2212 0.1728-0.5532 2.69-1.168 3.799-0.7766 1.4-2.646 2.72-3.763 2.657-0.6303-0.03565-0.9082-0.2544-1.09-0.858zm-1.616-3.853c-0.305-0.6381-0.3694-1.853-0.1555-2.935 0.1654-0.8363 1.348-2.802 2.192-3.644l0.6537-0.6522 0.4369 1.198c0.9052 2.482 0.6452 4.943-0.6704 6.32-1.02 1.068-1.856 0.9703-2.457-0.2866z"/>
    <path d="m83.87 16.12c-4.011 0.1113-7.318 6.308-4.916 9.638 0.5116 0.7099 0.8995 1.596 1.493 2.421l-3.462-3.732c-0.05685 6.796 2.039 8.083 7.784 13.6-1.994-0.9708-3.68-2.2-5.2-3.565 0.2955 8.62 6.813 13.71 12.97 16.3-2.271-0.541-4.889-1.903-7.714-3.76 1.457 2.991 3.548 5.406 7.468 6.161l-0.807 0.8577 2.189 0.1602-1.25 1.268 4.133-0.5928c2.128 1.88 6.519 5.931 8.376 6.662 0.1253 0.01207 2.464 0.04968 4.611 0.3624-2.994-0.7744-9.659-6.887-11.93-9.375l1.733-3.06-1.169 1.143 0.9309-5.217c-1.288 1.61-1.7 3.498-2.602 3.837 1.538-5.168 1.892-9.728 0.7764-13.4-0.5332 1.04-1.108 2.252-1.65 2.799 0.04451-5.495-1.961-9.376-3.364-13.9-0.6449 5.032-2.316 9.312-3.647 10.27 3.494-8.063 3.061-14.21-2.083-18.04-0.5689-0.3747-1.183-0.6374-1.853-0.7575-0.2721-0.04933-0.5427-0.06887-0.8101-0.06145zm0.2591 1.341c-1.033 9.421 1.202 17.95 6.235 25.87 2.014 3.177 4.341 6.338 6.974 9.244 3.53 4.112 8.825 8.163 10.5 8.866-0.3087-0.02319-1.104-0.07944-1.821-0.1217-2.646-1.255-8.518-6.767-10.58-8.926-2.148-2.245-3.629-4.896-5.623-8.053-2.986-4.736-5.029-9.458-6.044-14.96-0.5421-2.929-0.9762-6.59-0.3803-9.539 0.1619-0.8068 0.403-1.599 0.7512-2.375z"/>
    <path d="m112.5 88.42v14.66c0 0.8836 0.1208 1.674 0.3652 2.369 0.2632 0.6768 0.6677 1.251 1.213 1.721 0.5452 0.4512 1.261 0.7986 2.145 1.043 0.8836 0.2444 1.964 0.3672 3.242 0.3672 0.5264 0 1.035-0.02954 1.523-0.08594 0.4888-0.0376 0.9209-0.1033 1.297-0.1973v-4.117c-0.376 0.1128-0.7995 0.1975-1.27 0.2539-0.47 0.0376-0.9211 0.05664-1.354 0.05664-0.6392 0-1.137-0.03808-1.494-0.1133-0.3572-0.094-0.6199-0.2253-0.7891-0.3945-0.1692-0.1692-0.273-0.3747-0.3106-0.6191s-0.05664-0.528-0.05664-0.8477v-4.512h4.344v-3.947h-4.344v-3.666l-3.385-1.975h-1.127zm47.6 0v14.66c0 0.8836 0.1228 1.674 0.3672 2.369 0.2632 0.6768 0.6677 1.251 1.213 1.721 0.5452 0.4512 1.259 0.7986 2.143 1.043s1.966 0.3672 3.244 0.3672c0.5264 0 1.033-0.02954 1.521-0.08594 0.4888-0.0376 0.9228-0.1033 1.299-0.1973v-4.117c-0.376 0.1128-0.7995 0.1975-1.27 0.2539-0.47 0.0376-0.9211 0.05664-1.354 0.05664-0.6392 0-1.137-0.03808-1.494-0.1133-0.3572-0.094-0.6218-0.2253-0.791-0.3945-0.1692-0.1692-0.273-0.3747-0.3106-0.6191s-0.05468-0.528-0.05468-0.8477v-4.512h4.342v-3.947h-4.342v-3.666l-3.385-1.975h-1.129zm-129.6 0.8457v18.89h5.076v-12.12l9.898 12.12h5.076v-18.89h-5.076v12.13l-9.898-12.13h-5.076zm31.78 4.23c-1.579 0-2.886 0.1884-3.92 0.5645-1.034 0.3572-1.86 0.8549-2.48 1.494-0.6204 0.6392-1.054 1.391-1.299 2.256-0.2444 0.846-0.3652 1.759-0.3652 2.736v1.127c0 0.9776 0.1208 1.899 0.3652 2.764 0.2444 0.846 0.6784 1.589 1.299 2.229 0.6204 0.6392 1.446 1.137 2.48 1.494 1.034 0.376 2.341 0.5644 3.92 0.5644h0.5371c0.5264 0 1.09-0.01904 1.691-0.05664 0.6016-0.0188 1.203-0.06542 1.805-0.1406 0.6204-0.0564 1.213-0.1326 1.777-0.2266 0.5828-0.0752 1.119-0.1684 1.607-0.2813v-4.23c-0.4888 0.1504-1.025 0.2817-1.607 0.3945-0.564 0.094-1.148 0.1787-1.75 0.2539-0.5828 0.05641-1.155 0.103-1.719 0.1406-0.5452 0.0376-1.045 0.05664-1.496 0.05664-0.94 0-1.692-0.05516-2.256-0.168-0.564-0.1316-1.005-0.3115-1.324-0.5371-0.3008-0.2256-0.5083-0.4968-0.6211-0.8164-0.1128-0.3384-0.1785-0.7048-0.1973-1.1 0.6392 0.188 1.317 0.3193 2.031 0.3945 0.7144 0.0752 1.494 0.1113 2.34 0.1113 1.767 0 3.159-0.1123 4.174-0.3379 1.034-0.2256 1.813-0.5349 2.34-0.9297 0.5264-0.3948 0.8567-0.8459 0.9883-1.354 0.1504-0.5076 0.2246-1.043 0.2246-1.607v-0.2832c0-0.6204-0.1037-1.203-0.3105-1.748-0.2068-0.5452-0.5922-1.024-1.156-1.438-0.564-0.4136-1.352-0.7334-2.367-0.959-1.015-0.2444-2.322-0.3672-3.92-0.3672h-0.791zm39.14 0c-1.466 0-2.688 0.1313-3.666 0.3945-0.9588 0.2444-1.73 0.5832-2.312 1.016-0.5828 0.4324-0.9958 0.9301-1.24 1.494-0.2256 0.5452-0.3379 1.128-0.3379 1.748v0.2832c0 0.7332 0.1313 1.354 0.3945 1.861 0.2632 0.5076 0.602 0.9311 1.016 1.27 0.4324 0.3384 0.9196 0.6011 1.465 0.7891 0.5452 0.188 1.092 0.3279 1.637 0.4219 0.564 0.09401 1.1 0.1597 1.607 0.1973 0.5264 0.0376 0.9775 0.05664 1.354 0.05664 1.128 0.0376 1.946 0.1033 2.453 0.1973 0.5264 0.094 0.7891 0.3586 0.7891 0.791 0 0.1128-0.02758 0.2251-0.08398 0.3379-0.0564 0.094-0.1877 0.1872-0.3945 0.2812-0.2068 0.0752-0.5161 0.1409-0.9297 0.1973-0.4136 0.0564-0.9789 0.08594-1.693 0.08594-1.222 0-2.499-0.06566-3.834-0.1973-1.316-0.1504-2.595-0.3579-3.836-0.6211v3.92c1.109 0.2256 2.236 0.395 3.383 0.5078 1.147 0.1316 2.333 0.1973 3.555 0.1973h0.7891c1.466 0 2.68-0.1313 3.639-0.3945 0.9776-0.2444 1.757-0.5832 2.34-1.016 0.5828-0.4324 0.9873-0.9216 1.213-1.467 0.2444-0.564 0.3672-1.155 0.3672-1.775v-0.2832c0-0.7332-0.1313-1.354-0.3945-1.861s-0.6125-0.9311-1.045-1.27-0.9216-0.6011-1.467-0.7891c-0.5452-0.188-1.098-0.3279-1.662-0.4219-0.5452-0.1128-1.081-0.1785-1.607-0.1973-0.5076-0.0188-0.9416-0.03784-1.299-0.05664-1.147-0.0376-1.973-0.1033-2.48-0.1973-0.5076-0.1128-0.7617-0.3669-0.7617-0.7617 0-0.1128 0.02758-0.2165 0.08398-0.3105 0.0564-0.1128 0.1877-0.2165 0.3945-0.3105 0.2068-0.094 0.518-0.1682 0.9316-0.2246 0.4136-0.0564 0.9875-0.08594 1.721-0.08594 1.184 0 2.33 0.07616 3.439 0.2266 1.109 0.1316 2.227 0.3286 3.355 0.5918v-3.92c-0.9588-0.2256-1.946-0.395-2.961-0.5078-1.015-0.1316-2.057-0.1973-3.129-0.1973h-0.791zm32.52 0c-0.5452 0-1.119 0.01904-1.721 0.05664-0.5828 0.0188-1.184 0.06542-1.805 0.1406-0.6016 0.0564-1.193 0.1326-1.775 0.2266-0.564 0.0752-1.091 0.1684-1.58 0.2812v4.23c0.4888-0.1316 1.016-0.2544 1.58-0.3672 0.5828-0.1128 1.165-0.1975 1.748-0.2539 0.6016-0.0752 1.195-0.1304 1.777-0.168 0.5828-0.0376 1.127-0.05664 1.635-0.05664 0.9212 0 1.654 0.05517 2.199 0.168 0.564 0.094 0.9875 0.2444 1.27 0.4512 0.282 0.188 0.46 0.4336 0.5352 0.7344 0.094 0.282 0.1511 0.6103 0.1699 0.9863-1.297-0.3572-2.867-0.5352-4.709-0.5352-1.466 0-2.699 0.1123-3.695 0.3379-0.9776 0.2256-1.776 0.5349-2.396 0.9297-0.6016 0.3948-1.034 0.8564-1.297 1.383-0.2444 0.5264-0.3672 1.081-0.3672 1.664v0.2812c0 0.6204 0.1228 1.222 0.3672 1.805 0.2444 0.564 0.666 1.072 1.268 1.523 0.6016 0.4324 1.402 0.7712 2.398 1.016 1.015 0.2632 2.284 0.3945 3.807 0.3945 1.297 0 2.462-0.1228 3.496-0.3672 1.034-0.2256 2.031-0.5815 2.99-1.07l1.523 0.873h1.127v-8.459c0-1.015-0.1504-1.909-0.4512-2.68-0.3008-0.7708-0.79-1.41-1.467-1.918-0.6768-0.5264-1.56-0.9204-2.65-1.184-1.072-0.282-2.397-0.4238-3.977-0.4238zm20.84 0c-1.241 0-2.368 0.1228-3.383 0.3672-1.015 0.2444-1.975 0.6108-2.877 1.1l-1.523-0.9023h-1.127v14.1h4.512v-9.842c1.241-0.3948 2.624-0.5918 4.146-0.5918 0.8836 0 1.756 0.0742 2.621 0.2246v-4.258c-0.3572-0.0564-0.7321-0.103-1.127-0.1406-0.3948-0.0376-0.8098-0.05664-1.242-0.05664zm-80.57 0.5645v7.613c0 0.9776 0.1123 1.899 0.3379 2.764 0.2444 0.846 0.6574 1.589 1.24 2.229 0.6016 0.6392 1.402 1.137 2.398 1.494 1.015 0.376 2.284 0.5644 3.807 0.5644h0.7891c1.523 0 2.783-0.1884 3.779-0.5644 0.9964-0.3572 1.786-0.8549 2.369-1.494 0.6016-0.6392 1.025-1.382 1.27-2.229 0.2444-0.8648 0.3652-1.786 0.3652-2.764v-7.613h-4.512v7.051c0 0.4512-0.01904 0.8918-0.05664 1.324s-0.1689 0.8093-0.3945 1.129c-0.2256 0.3196-0.592 0.5822-1.1 0.7891-0.4888 0.188-1.194 0.2812-2.115 0.2812s-1.635-0.09324-2.143-0.2812c-0.4888-0.2068-0.8467-0.4695-1.072-0.7891-0.2256-0.3196-0.3569-0.6965-0.3945-1.129s-0.05664-0.873-0.05664-1.324v-7.051h-4.512zm-11.11 2.961c0.752 0 1.345 0.04662 1.777 0.1406 0.4324 0.0752 0.7522 0.1789 0.959 0.3105 0.2256 0.1316 0.3569 0.282 0.3945 0.4512 0.0564 0.1504 0.08398 0.2922 0.08398 0.4238 0 0.1316-0.02758 0.2629-0.08398 0.3945-0.0564 0.1128-0.1982 0.2251-0.4238 0.3379-0.2256 0.094-0.573 0.1787-1.043 0.2539-0.47 0.0564-1.118 0.08398-1.945 0.08398-0.8272 0-1.562-0.02758-2.201-0.08398-0.6204-0.0752-1.203-0.1875-1.748-0.3379 0.0752-0.3196 0.198-0.6032 0.3672-0.8477 0.1692-0.2444 0.4128-0.4499 0.7324-0.6191 0.3196-0.1692 0.7346-0.292 1.242-0.3672 0.5076-0.094 1.137-0.1406 1.889-0.1406zm70.45 5.752c0.8836 0 1.682 0.04857 2.396 0.1426 0.7144 0.0752 1.392 0.196 2.031 0.3652v1.326c-1.278 0.3948-2.661 0.5918-4.146 0.5918-0.9024 0-1.606-0.02758-2.113-0.08398s-0.893-0.1411-1.156-0.2539c-0.2444-0.1128-0.3948-0.2356-0.4512-0.3672-0.0564-0.1504-0.08594-0.3093-0.08594-0.4785 0-0.1316 0.02954-0.2734 0.08594-0.4238 0.0564-0.1504 0.1963-0.2817 0.4219-0.3945 0.2256-0.1316 0.573-0.2354 1.043-0.3106s1.129-0.1133 1.975-0.1133zm-20.18 15.26v21.15h4.512v-9.953c0.6204-0.2068 1.27-0.3591 1.947-0.4531 0.6768-0.1128 1.41-0.168 2.199-0.168 0.9588 0 1.692 0.1037 2.199 0.3106 0.5076 0.188 0.8845 0.4421 1.129 0.7617 0.2444 0.3196 0.3843 0.6945 0.4219 1.127 0.0376 0.4324 0.05664 0.875 0.05664 1.326v7.049h4.512v-7.613c0-0.9776-0.1208-1.89-0.3652-2.736-0.2444-0.8648-0.6784-1.617-1.299-2.256s-1.446-1.137-2.48-1.494c-1.034-0.376-2.341-0.5645-3.92-0.5645-0.846 1e-5 -1.627 0.05712-2.342 0.1699-0.7144 0.1128-1.401 0.2717-2.059 0.4785v-5.16l-3.383-1.975h-1.129zm20.64 0v21.15h4.512v-19.18l-3.383-1.975h-1.129zm61.54 0v7.135c-0.658-0.2068-1.355-0.3657-2.088-0.4785-0.7144-0.1128-1.485-0.1699-2.312-0.1699-1.579 0-2.886 0.1884-3.92 0.5645-1.034 0.3572-1.86 0.8549-2.48 1.494-0.6204 0.6392-1.054 1.391-1.299 2.256-0.2444 0.846-0.3652 1.759-0.3652 2.736v1.127c0 0.9776 0.1208 1.899 0.3652 2.764 0.2444 0.846 0.6784 1.589 1.299 2.229 0.6204 0.6392 1.446 1.137 2.48 1.494 1.034 0.376 2.341 0.5644 3.92 0.5644 1.241 0 2.37-0.1228 3.385-0.3672 1.015-0.2256 1.975-0.5815 2.877-1.07l1.521 0.873h1.129v-19.18l-3.385-1.975h-1.127zm-132 1.41v14.66c0 0.8836 0.1208 1.674 0.3652 2.369 0.2632 0.6768 0.6677 1.251 1.213 1.721 0.5452 0.4512 1.261 0.7986 2.145 1.043 0.8836 0.2444 1.964 0.3672 3.242 0.3672 0.5264 0 1.035-0.02759 1.523-0.08399 0.4888-0.03761 0.9209-0.1033 1.297-0.1973v-4.117c-0.376 0.1128-0.7995 0.1956-1.27 0.252-0.47 0.0376-0.9211 0.05664-1.354 0.05664-0.6392 0-1.137-0.03613-1.494-0.1113-0.3572-0.094-0.6199-0.2273-0.7891-0.3965s-0.2729-0.3747-0.3105-0.6191-0.05664-0.5261-0.05664-0.8457v-4.514h4.344v-3.947h-4.344v-3.666l-3.385-1.975h-1.127zm-55.08 0.2832c-1.448 0-2.877 0.04661-4.287 0.1406-1.41 0.094-2.782 0.2444-4.117 0.4512v18.87c1.335 0.188 2.707 0.3298 4.117 0.4238 1.41 0.094 2.839 0.1406 4.287 0.1406h1.016c2.162 0 3.947-0.2436 5.357-0.7324 1.429-0.4888 2.566-1.147 3.412-1.975 0.846-0.846 1.439-1.833 1.777-2.961 0.3384-1.128 0.5078-2.331 0.5078-3.609v-1.467c0-1.278-0.1694-2.481-0.5078-3.609-0.3384-1.128-0.9313-2.106-1.777-2.934-0.846-0.846-1.983-1.513-3.412-2.002-1.41-0.4888-3.195-0.7324-5.357-0.7324h-1.016zm0.1406 4.482c1.692 0 2.99 0.1418 3.893 0.4238 0.9212 0.2632 1.588 0.6401 2.002 1.129 0.4324 0.4888 0.676 1.071 0.7324 1.748 0.0752 0.6768 0.1133 1.418 0.1133 2.227s-0.03808 1.552-0.1133 2.229c-0.0564 0.6768-0.3 1.27-0.7324 1.777-0.4136 0.4888-1.081 0.8742-2.002 1.156-0.9024 0.2632-2.201 0.3945-3.893 0.3945-0.4888 0-1.033-0.01049-1.635-0.02929-0.5828-0.0188-1.195-0.04639-1.834-0.08399v-10.86c0.6392-0.0376 1.251-0.06519 1.834-0.08398 0.6016-0.0188 1.146-0.0293 1.635-0.0293zm23.27 0.3105c-1.579 0-2.886 0.1884-3.92 0.5645-1.034 0.3572-1.862 0.8549-2.482 1.494-0.6204 0.6392-1.052 1.391-1.297 2.256-0.2444 0.846-0.3652 1.759-0.3652 2.736v1.127c0 0.9776 0.1208 1.899 0.3652 2.764 0.2444 0.846 0.6765 1.589 1.297 2.229 0.6204 0.6392 1.448 1.137 2.482 1.494 1.034 0.376 2.341 0.5644 3.92 0.5644h0.5352c0.5264 0 1.092-0.01904 1.693-0.05664 0.6016-0.0188 1.203-0.06543 1.805-0.1406 0.6204-0.05641 1.211-0.1306 1.775-0.2246 0.5828-0.0752 1.119-0.1704 1.607-0.2832v-4.23c-0.4888 0.1504-1.025 0.2837-1.607 0.3965-0.564 0.094-1.146 0.1768-1.748 0.252-0.5828 0.0564-1.157 0.105-1.721 0.1426-0.5452 0.0376-1.043 0.05664-1.494 0.05664-0.94 0-1.692-0.05712-2.256-0.1699-0.564-0.1316-1.007-0.3096-1.326-0.5352-0.3008-0.2256-0.5063-0.4987-0.6191-0.8184-0.1128-0.3384-0.1785-0.7048-0.1973-1.1 0.6392 0.188 1.315 0.3193 2.029 0.3945 0.7144 0.07521 1.496 0.1133 2.342 0.1133 1.767 0 3.159-0.1142 4.174-0.3398 1.034-0.2256 1.813-0.5349 2.34-0.9297 0.5264-0.3948 0.8547-0.8459 0.9863-1.354 0.1504-0.5076 0.2266-1.043 0.2266-1.607v-0.2832c0-0.6204-0.1037-1.203-0.3105-1.748-0.2068-0.5452-0.5922-1.024-1.156-1.438-0.564-0.4136-1.354-0.7334-2.369-0.959-1.015-0.2444-2.322-0.3672-3.92-0.3672h-0.7891zm52.23 0c-1.466 0-2.688 0.1313-3.666 0.3945-0.9588 0.2444-1.73 0.5832-2.312 1.016s-0.9978 0.9301-1.242 1.494c-0.2256 0.5452-0.3379 1.13-0.3379 1.75v0.2812c0 0.7332 0.1313 1.354 0.3945 1.861s0.602 0.9311 1.016 1.27c0.4324 0.3384 0.9216 0.6011 1.467 0.7891 0.5452 0.188 1.09 0.3298 1.635 0.4238 0.564 0.09401 1.1 0.1597 1.607 0.1973 0.5264 0.0376 0.9775 0.05664 1.354 0.05664 1.128 0.0376 1.947 0.1033 2.455 0.1973 0.5264 0.094 0.7891 0.3566 0.7891 0.7891 0 0.1128-0.02954 0.2251-0.08594 0.3379-0.0564 0.094-0.1877 0.1892-0.3945 0.2832-0.2068 0.0752-0.5161 0.1409-0.9297 0.1973-0.4136 0.0564-0.977 0.08398-1.691 0.08398-1.222 0-2.501-0.06567-3.836-0.1973-1.316-0.1504-2.595-0.3579-3.836-0.6211v3.92c1.109 0.2256 2.238 0.395 3.385 0.5078 1.147 0.1316 2.331 0.1973 3.553 0.1973h0.7891c1.466 0 2.68-0.1313 3.639-0.3945 0.9776-0.2444 1.757-0.5832 2.34-1.016 0.5828-0.4324 0.9873-0.9216 1.213-1.467 0.2444-0.564 0.3672-1.155 0.3672-1.775v-0.2832c0-0.7332-0.1313-1.354-0.3945-1.861-0.2632-0.5076-0.6106-0.9292-1.043-1.268-0.4324-0.3384-0.9216-0.603-1.467-0.791-0.5452-0.188-1.1-0.3279-1.664-0.4219-0.5452-0.1128-1.081-0.1785-1.607-0.1973-0.5076-0.0188-0.9397-0.03784-1.297-0.05664-1.147-0.0376-1.975-0.1033-2.482-0.1973-0.5076-0.1128-0.7617-0.3669-0.7617-0.7617 0-0.1128 0.02954-0.2166 0.08594-0.3106 0.0564-0.1128 0.1877-0.2166 0.3945-0.3106 0.2068-0.094 0.5161-0.1682 0.9297-0.2246 0.4136-0.0564 0.9875-0.08593 1.721-0.08593 1.184 0 2.33 0.07616 3.439 0.2266 1.109 0.1316 2.229 0.3286 3.357 0.5918v-3.92c-0.9588-0.2256-1.946-0.395-2.961-0.5078-1.015-0.1316-2.059-0.1973-3.131-0.1973h-0.7891zm18.98 0c-1.579 0-2.886 0.1884-3.92 0.5645-1.034 0.3572-1.862 0.8549-2.482 1.494s-1.052 1.391-1.297 2.256c-0.2444 0.846-0.3672 1.759-0.3672 2.736v1.127c0 0.9776 0.1228 1.899 0.3672 2.764 0.2444 0.846 0.6765 1.589 1.297 2.229s1.448 1.137 2.482 1.494c1.034 0.376 2.341 0.5644 3.92 0.5644h0.7891c1.015 0 2.002-0.06567 2.961-0.1973 0.9776-0.1128 1.928-0.2822 2.85-0.5078v-4.201c-1.053 0.3008-2.107 0.5168-3.16 0.6484-1.053 0.1128-1.974 0.1699-2.764 0.1699-1.053 0-1.87-0.0847-2.453-0.2539-0.564-0.188-0.977-0.4336-1.24-0.7344-0.2632-0.3196-0.4221-0.6946-0.4785-1.127-0.0376-0.4324-0.05664-0.9026-0.05664-1.41 0-0.5076 0.01904-0.9778 0.05664-1.41 0.0564-0.4324 0.2153-0.7988 0.4785-1.1 0.2632-0.3196 0.6762-0.5652 1.24-0.7344 0.5828-0.188 1.4-0.2812 2.453-0.2812 0.7896 0 1.711 0.06566 2.764 0.1973 1.053 0.1128 2.107 0.3203 3.16 0.6211v-4.203c-0.9212-0.2256-1.872-0.395-2.85-0.5078-0.9588-0.1316-1.946-0.1973-2.961-0.1973h-0.7891zm47.57 0c-0.5452 1e-5 -1.119 0.01905-1.721 0.05665-0.5828 0.0188-1.184 0.06541-1.805 0.1406-0.6016 0.0564-1.193 0.1326-1.775 0.2266-0.564 0.07521-1.091 0.1684-1.58 0.2812v4.23c0.4888-0.1316 1.016-0.2544 1.58-0.3672 0.5828-0.1128 1.165-0.1975 1.748-0.2539 0.6016-0.0752 1.195-0.1304 1.777-0.168s1.127-0.05664 1.635-0.05664c0.9212 0 1.654 0.05517 2.199 0.168 0.564 0.094 0.9875 0.2463 1.27 0.4531 0.282 0.188 0.46 0.4316 0.5352 0.7324 0.094 0.282 0.1511 0.6103 0.1699 0.9863-1.297-0.3572-2.867-0.5352-4.709-0.5352-1.466 0-2.699 0.1123-3.695 0.3379-0.9776 0.2256-1.776 0.5368-2.396 0.9316-0.6016 0.3948-1.034 0.8544-1.297 1.381-0.2444 0.5264-0.3672 1.081-0.3672 1.664v0.2812c0 0.6204 0.1228 1.224 0.3672 1.807 0.2444 0.564 0.666 1.07 1.268 1.521 0.6016 0.4324 1.402 0.7712 2.398 1.016 1.015 0.2632 2.284 0.3945 3.807 0.3945 1.297 0 2.462-0.1228 3.496-0.3672 1.034-0.2256 2.031-0.5815 2.99-1.07l1.523 0.873h1.127v-8.459c0-1.015-0.1504-1.909-0.4512-2.68-0.3008-0.7708-0.79-1.41-1.467-1.918-0.6768-0.5264-1.56-0.9204-2.65-1.184-1.072-0.282-2.397-0.4238-3.977-0.4238zm20.98 0c-1.241 0-2.37 0.1228-3.385 0.3672-1.015 0.2444-1.975 0.6108-2.877 1.1l-1.523-0.9023h-1.127v14.1h4.512v-9.953c0.6204-0.2068 1.268-0.3591 1.945-0.4531 0.6768-0.1128 1.412-0.168 2.201-0.168 0.9588 0 1.692 0.1037 2.199 0.3106 0.5076 0.188 0.8826 0.4421 1.127 0.7617 0.2444 0.3196 0.3862 0.6945 0.4238 1.127 0.0376 0.4324 0.05664 0.875 0.05664 1.326v7.049h4.512v-7.613c0-0.9776-0.1228-1.89-0.3672-2.736-0.2444-0.8648-0.6764-1.617-1.297-2.256s-1.446-1.137-2.48-1.494c-1.034-0.376-2.341-0.5644-3.92-0.5645zm-127.8 0.5645v7.613c0 0.9776 0.1123 1.899 0.3379 2.764 0.2444 0.846 0.6574 1.589 1.24 2.229 0.6016 0.6392 1.4 1.137 2.396 1.494 1.015 0.376 2.286 0.5644 3.809 0.5644h0.7891c1.523 0 2.783-0.1884 3.779-0.5644 0.9964-0.3572 1.786-0.8549 2.369-1.494 0.6016-0.6392 1.023-1.382 1.268-2.229 0.2444-0.8648 0.3672-1.786 0.3672-2.764v-7.613h-4.512v7.051c0 0.4512-0.01904 0.8918-0.05664 1.324-0.0376 0.4324-0.1689 0.8093-0.3945 1.129-0.2256 0.3196-0.592 0.5823-1.1 0.7891-0.4888 0.188-1.194 0.2832-2.115 0.2832s-1.635-0.0952-2.143-0.2832c-0.4888-0.2068-0.8467-0.4695-1.072-0.7891-0.2256-0.3196-0.3569-0.6965-0.3945-1.129s-0.05664-0.873-0.05664-1.324v-7.051h-4.512zm-11.11 2.961c0.752 0 1.343 0.04662 1.775 0.1406 0.4324 0.07521 0.7522 0.179 0.959 0.3106 0.2256 0.1316 0.3569 0.282 0.3945 0.4512 0.0564 0.1504 0.08594 0.2922 0.08594 0.4238 0 0.1316-0.02954 0.2629-0.08594 0.3945-0.0564 0.1128-0.1963 0.2251-0.4219 0.3379-0.2256 0.094-0.573 0.1787-1.043 0.2539-0.47 0.0564-1.12 0.08398-1.947 0.08398-0.8272 0-1.56-0.02758-2.199-0.08398-0.6204-0.07521-1.203-0.1875-1.748-0.3379 0.0752-0.3196 0.198-0.6013 0.3672-0.8457 0.1692-0.2444 0.4128-0.4519 0.7324-0.6211s0.7326-0.292 1.24-0.3672c0.5076-0.094 1.139-0.1406 1.891-0.1406zm158.7 0.5644c0.7708 0 1.495 0.05517 2.172 0.168 0.6768 0.094 1.335 0.2463 1.975 0.4531v5.836c-1.278 0.3948-2.661 0.5938-4.146 0.5938-0.9588 0-1.692-0.0952-2.199-0.2832-0.5076-0.2068-0.8845-0.4695-1.129-0.7891-0.2444-0.3196-0.3843-0.6965-0.4219-1.129s-0.05664-0.873-0.05664-1.324 0.01904-0.8938 0.05664-1.326c0.0376-0.4324 0.1775-0.8074 0.4219-1.127 0.2444-0.3196 0.6213-0.5737 1.129-0.7617 0.5076-0.2068 1.24-0.3106 2.199-0.3106zm-41.14 5.189c0.8836 0 1.682 0.04662 2.396 0.1406 0.7144 0.0752 1.392 0.198 2.031 0.3672v1.324c-1.278 0.3948-2.661 0.5918-4.146 0.5918-0.9024 0-1.608-0.02758-2.115-0.08398s-0.8911-0.1411-1.154-0.2539c-0.2444-0.1128-0.3967-0.2356-0.4531-0.3672-0.0564-0.1504-0.08398-0.3093-0.08398-0.4785-1e-5 -0.1316 0.02758-0.2734 0.08398-0.4238 0.0564-0.1504 0.1982-0.2817 0.4238-0.3945 0.2256-0.1316 0.573-0.2354 1.043-0.3106 0.47-0.07521 1.129-0.1113 1.975-0.1113z"/>
</svg>
